<svg width="19" height="19" viewBox="0 0 19 19" fill="none" xmlns="http://www.w3.org/2000/svg">
<path d="M6.52199 9.54983C6.52199 8.95585 6.69812 8.37522 7.02811 7.88135C7.35811 7.38748 7.82714 7.00255 8.3759 6.77525C8.92466 6.54794 9.5285 6.48847 10.1111 6.60435C10.6936 6.72023 11.2287 7.00625 11.6487 7.42626C12.0687 7.84626 12.3548 8.38137 12.4706 8.96393C12.5865 9.54649 12.527 10.1503 12.2997 10.6991C12.0724 11.2479 11.6875 11.7169 11.1936 12.0469C10.6998 12.3769 10.1191 12.553 9.52517 12.553C8.72867 12.553 7.9648 12.2366 7.4016 11.6734C6.83839 11.1102 6.52199 10.3463 6.52199 9.54983ZM4.89833 9.54983C4.89833 10.4648 5.16964 11.3592 5.67796 12.12C6.18628 12.8808 6.90878 13.4738 7.7541 13.8239C8.59942 14.1741 9.52959 14.2657 10.427 14.0873C11.3244 13.9088 12.1487 13.4683 12.7957 12.8213C13.4428 12.1744 13.8834 11.3501 14.062 10.4527C14.2406 9.55532 14.149 8.62514 13.7989 7.77978C13.4489 6.93442 12.856 6.21185 12.0953 5.70345C11.3345 5.19504 10.4401 4.92362 9.52517 4.92351C8.91762 4.92349 8.31603 5.04314 7.75473 5.27562C7.19343 5.50811 6.68342 5.84888 6.25382 6.27848C5.82422 6.70807 5.48345 7.21808 5.25097 7.77939C5.01848 8.34069 4.89883 8.94228 4.89886 9.54983H4.89833ZM13.2526 4.74014C13.2526 4.95397 13.3159 5.16302 13.4347 5.34085C13.5534 5.51869 13.7222 5.65732 13.9197 5.73921C14.1173 5.8211 14.3346 5.84258 14.5444 5.80094C14.7541 5.75929 14.9468 5.65638 15.098 5.50523C15.2493 5.35408 15.3523 5.16147 15.3941 4.95176C15.4359 4.74206 15.4145 4.52467 15.3328 4.32709C15.251 4.12951 15.1125 3.96061 14.9347 3.84175C14.757 3.7229 14.548 3.65942 14.3341 3.65935C14.0475 3.65949 13.7726 3.77339 13.5699 3.97604C13.3672 4.17869 13.2532 4.45351 13.253 4.74014H13.2526ZM5.88602 16.8834C5.31466 16.8769 4.74869 16.7721 4.21289 16.5736C3.82157 16.4289 3.46752 16.1987 3.17662 15.8996C2.87713 15.6094 2.64679 15.2554 2.50267 14.864C2.30382 14.3283 2.19877 13.7623 2.19211 13.1909C2.14847 12.2412 2.13911 11.9559 2.13911 9.55C2.13911 7.1441 2.14847 6.85951 2.19211 5.90909C2.19928 5.3378 2.30408 4.77194 2.50196 4.23596C2.64661 3.84464 2.87687 3.49059 3.17591 3.19969C3.46631 2.90003 3.82051 2.66967 4.21219 2.52574C4.74817 2.32699 5.31441 2.22211 5.88602 2.2157C6.83573 2.17207 7.12103 2.16271 9.52517 2.16271C11.9293 2.16271 12.2157 2.17207 13.1661 2.2157C13.7374 2.22288 14.3032 2.32767 14.8392 2.52556C15.2307 2.66994 15.5848 2.90023 15.8755 3.19951C16.1748 3.49022 16.4051 3.84433 16.5494 4.23579C16.748 4.77156 16.8528 5.33755 16.8593 5.90891C16.9029 6.85933 16.9123 7.14392 16.9123 9.54983C16.9123 11.9557 16.9036 12.2403 16.8593 13.1907C16.8524 13.7621 16.7476 14.328 16.5494 14.8639C16.3995 15.2524 16.1699 15.6053 15.8753 15.8997C15.5808 16.1941 15.2278 16.4236 14.8392 16.5734C14.3034 16.772 13.7374 16.8768 13.1661 16.8832C12.2164 16.9269 11.9311 16.9362 9.52517 16.9362C7.11927 16.9362 6.83467 16.9276 5.88602 16.8832V16.8834ZM5.81076 0.59487C5.06339 0.609656 4.32394 0.751166 3.62392 1.01337C3.02268 1.23961 2.478 1.59421 2.02781 2.05247C1.56908 2.50224 1.21436 3.04696 0.988538 3.6484C0.726395 4.3485 0.584945 5.088 0.570212 5.83542C0.525871 6.79609 0.515625 7.10312 0.515625 9.54983C0.515625 11.9965 0.525871 12.3036 0.570212 13.2642C0.585015 14.0116 0.726524 14.751 0.988714 15.4511C1.21452 16.0525 1.56918 16.5973 2.02781 17.0472C2.47815 17.5052 3.02271 17.8598 3.62374 18.0865C4.32379 18.3486 5.06322 18.4901 5.81059 18.505C6.77178 18.5486 7.07828 18.5595 9.52499 18.5595C11.9717 18.5595 12.2787 18.5493 13.2394 18.505C13.9868 18.4902 14.7262 18.3486 15.4262 18.0865C16.0249 17.855 16.5685 17.501 17.0224 17.0472C17.4762 16.5934 17.8302 16.0497 18.0616 15.4511C18.3242 14.7511 18.4657 14.0116 18.4801 13.2642C18.5238 12.3029 18.5331 11.9965 18.5331 9.54983C18.5331 7.10312 18.5229 6.79609 18.4801 5.83542C18.4654 5.08804 18.3238 4.34859 18.0616 3.64858C17.8351 3.04751 17.4805 2.50289 17.0225 2.05247C16.5728 1.59399 16.0284 1.23929 15.4273 1.0132C14.7273 0.750854 13.9877 0.609398 13.2403 0.59487C12.2798 0.551236 11.9726 0.540283 9.52517 0.540283C7.07775 0.540283 6.77107 0.550529 5.81006 0.59487" fill="url(#paint0_radial_5_446)"/>
<path d="M6.52199 9.54983C6.52199 8.95585 6.69812 8.37522 7.02811 7.88135C7.35811 7.38748 7.82714 7.00255 8.3759 6.77525C8.92466 6.54794 9.5285 6.48847 10.1111 6.60435C10.6936 6.72023 11.2287 7.00625 11.6487 7.42626C12.0687 7.84626 12.3548 8.38137 12.4706 8.96393C12.5865 9.54649 12.527 10.1503 12.2997 10.6991C12.0724 11.2479 11.6875 11.7169 11.1936 12.0469C10.6998 12.3769 10.1191 12.553 9.52517 12.553C8.72867 12.553 7.9648 12.2366 7.4016 11.6734C6.83839 11.1102 6.52199 10.3463 6.52199 9.54983ZM4.89833 9.54983C4.89833 10.4648 5.16964 11.3592 5.67796 12.12C6.18628 12.8808 6.90878 13.4738 7.7541 13.8239C8.59942 14.1741 9.52959 14.2657 10.427 14.0873C11.3244 13.9088 12.1487 13.4683 12.7957 12.8213C13.4428 12.1744 13.8834 11.3501 14.062 10.4527C14.2406 9.55532 14.149 8.62514 13.7989 7.77978C13.4489 6.93442 12.856 6.21185 12.0953 5.70345C11.3345 5.19504 10.4401 4.92362 9.52517 4.92351C8.91762 4.92349 8.31603 5.04314 7.75473 5.27562C7.19343 5.50811 6.68342 5.84888 6.25382 6.27848C5.82422 6.70807 5.48345 7.21808 5.25097 7.77939C5.01848 8.34069 4.89883 8.94228 4.89886 9.54983H4.89833ZM13.2526 4.74014C13.2526 4.95397 13.3159 5.16302 13.4347 5.34085C13.5534 5.51869 13.7222 5.65732 13.9197 5.73921C14.1173 5.8211 14.3346 5.84258 14.5444 5.80094C14.7541 5.75929 14.9468 5.65638 15.098 5.50523C15.2493 5.35408 15.3523 5.16147 15.3941 4.95176C15.4359 4.74206 15.4145 4.52467 15.3328 4.32709C15.251 4.12951 15.1125 3.96061 14.9347 3.84175C14.757 3.7229 14.548 3.65942 14.3341 3.65935C14.0475 3.65949 13.7726 3.77339 13.5699 3.97604C13.3672 4.17869 13.2532 4.45351 13.253 4.74014H13.2526ZM5.88602 16.8834C5.31466 16.8769 4.74869 16.7721 4.21289 16.5736C3.82157 16.4289 3.46752 16.1987 3.17662 15.8996C2.87713 15.6094 2.64679 15.2554 2.50267 14.864C2.30382 14.3283 2.19877 13.7623 2.19211 13.1909C2.14847 12.2412 2.13911 11.9559 2.13911 9.55C2.13911 7.1441 2.14847 6.85951 2.19211 5.90909C2.19928 5.3378 2.30408 4.77194 2.50196 4.23596C2.64661 3.84464 2.87687 3.49059 3.17591 3.19969C3.46631 2.90003 3.82051 2.66967 4.21219 2.52574C4.74817 2.32699 5.31441 2.22211 5.88602 2.2157C6.83573 2.17207 7.12103 2.16271 9.52517 2.16271C11.9293 2.16271 12.2157 2.17207 13.1661 2.2157C13.7374 2.22288 14.3032 2.32767 14.8392 2.52556C15.2307 2.66994 15.5848 2.90023 15.8755 3.19951C16.1748 3.49022 16.4051 3.84433 16.5494 4.23579C16.748 4.77156 16.8528 5.33755 16.8593 5.90891C16.9029 6.85933 16.9123 7.14392 16.9123 9.54983C16.9123 11.9557 16.9036 12.2403 16.8593 13.1907C16.8524 13.7621 16.7476 14.328 16.5494 14.8639C16.3995 15.2524 16.1699 15.6053 15.8753 15.8997C15.5808 16.1941 15.2278 16.4236 14.8392 16.5734C14.3034 16.772 13.7374 16.8768 13.1661 16.8832C12.2164 16.9269 11.9311 16.9362 9.52517 16.9362C7.11927 16.9362 6.83467 16.9278 5.88602 16.8834ZM5.81076 0.59487C5.06339 0.609656 4.32394 0.751166 3.62392 1.01337C3.02268 1.23961 2.478 1.59421 2.02781 2.05247C1.56908 2.50224 1.21436 3.04696 0.988538 3.6484C0.726395 4.3485 0.584945 5.088 0.570212 5.83542C0.525871 6.79609 0.515625 7.10312 0.515625 9.54983C0.515625 11.9965 0.525871 12.3036 0.570212 13.2642C0.585015 14.0116 0.726524 14.751 0.988714 15.4511C1.21452 16.0525 1.56918 16.5973 2.02781 17.0472C2.47815 17.5052 3.02271 17.8598 3.62374 18.0865C4.32379 18.3486 5.06322 18.4901 5.81059 18.505C6.77178 18.5486 7.07828 18.5595 9.52499 18.5595C11.9717 18.5595 12.2787 18.5493 13.2394 18.505C13.9868 18.4902 14.7262 18.3486 15.4262 18.0865C16.0249 17.855 16.5685 17.501 17.0224 17.0472C17.4762 16.5934 17.8302 16.0497 18.0616 15.4511C18.3242 14.7511 18.4657 14.0116 18.4801 13.2642C18.5238 12.3029 18.5331 11.9965 18.5331 9.54983C18.5331 7.10312 18.5229 6.79609 18.4801 5.83542C18.4654 5.08804 18.3238 4.34859 18.0616 3.64858C17.8351 3.04751 17.4805 2.50289 17.0225 2.05247C16.5728 1.59399 16.0284 1.23929 15.4273 1.0132C14.7273 0.750854 13.9877 0.609398 13.2403 0.59487C12.2798 0.551236 11.9726 0.540283 9.52517 0.540283C7.07775 0.540283 6.77107 0.550529 5.81006 0.59487" fill="url(#paint1_radial_5_446)"/>
<defs>
<radialGradient id="paint0_radial_5_446" cx="0" cy="0" r="1" gradientUnits="userSpaceOnUse" gradientTransform="translate(2.90951 18.6445) scale(23.5214 23.5214)">
<stop offset="0.09" stop-color="#FA8F21"/>
<stop offset="0.78" stop-color="#D82D7E"/>
</radialGradient>
<radialGradient id="paint1_radial_5_446" cx="0" cy="0" r="1" gradientUnits="userSpaceOnUse" gradientTransform="translate(11.4435 19.4517) scale(18.5381 18.5381)">
<stop offset="0.64" stop-color="#8C3AAA" stop-opacity="0"/>
<stop offset="1" stop-color="#8C3AAA"/>
</radialGradient>
</defs>
</svg>
