<svg width="13" height="15" viewBox="0 0 13 15" fill="none" xmlns="http://www.w3.org/2000/svg">
    <path d="M7.43652 0.725076C7.43652 0.33056 7.12901 0.0107422 6.74966 0.0107422C6.37032 0.0107422 6.0628 0.33056 6.0628 0.725076V8.0012L4.76259 6.64897C4.49435 6.37 4.05945 6.37 3.79122 6.64897C3.52298 6.92793 3.52298 7.38023 3.79122 7.65919L6.26391 10.2308C6.33712 10.3069 6.42275 10.3623 6.51401 10.3969C6.58751 10.4248 6.66687 10.44 6.74966 10.44C6.8569 10.44 6.9584 10.4145 7.04883 10.3689C7.09053 10.3479 7.13061 10.3223 7.16836 10.292C7.19412 10.2714 7.21843 10.2489 7.2411 10.2247L9.70797 7.65919C9.97621 7.38023 9.97621 6.92793 9.70797 6.64897C9.43974 6.37 9.00484 6.37 8.73661 6.64897L7.43652 8.00106V0.725076Z"
          fill="#666666"/>
    <path d="M1.18604 9.65425C1.56538 9.65425 1.87289 9.97407 1.87289 10.3686V12.2973C1.87289 12.4488 1.93079 12.5942 2.03384 12.7014C2.13689 12.8085 2.27665 12.8688 2.42238 12.8688H11.0768C11.2225 12.8688 11.3623 12.8085 11.4654 12.7014C11.5684 12.5942 11.6263 12.4488 11.6263 12.2973V10.3686C11.6263 9.97407 11.9338 9.65425 12.3132 9.65425C12.6925 9.65425 13 9.97407 13 10.3686V12.2973C13 12.8278 12.7974 13.3365 12.4367 13.7116C12.0761 14.0867 11.5869 14.2974 11.0768 14.2974H2.42238C1.91232 14.2974 1.42314 14.0867 1.06247 13.7116C0.701799 13.3365 0.499176 12.8278 0.499176 12.2973V10.3686C0.499176 9.97407 0.806693 9.65425 1.18604 9.65425Z"
          fill="#666666"/>
</svg>
