<svg width="15" height="15" viewBox="0 0 15 15" fill="none" xmlns="http://www.w3.org/2000/svg">
    <path d="M12.4632 0.0114746L2.46249 0.0114746C1.89413 0.0114746 1.34905 0.237255 0.947159 0.639145C0.545268 1.04104 0.319489 1.58612 0.319489 2.15448V12.1551C0.319489 12.7235 0.545268 13.2686 0.947159 13.6705C1.34905 14.0724 1.89413 14.2982 2.46249 14.2982H12.4632C13.0315 14.2982 13.5766 14.0724 13.9785 13.6705C14.3804 13.2686 14.6062 12.7235 14.6062 12.1551V2.15448C14.6062 1.58612 14.3804 1.04104 13.9785 0.639145C13.5766 0.237255 13.0315 0.0114746 12.4632 0.0114746ZM12.4632 1.44014C12.6526 1.44014 12.8343 1.5154 12.9683 1.64937C13.1022 1.78333 13.1775 1.96502 13.1775 2.15448V6.44048H8.17716V1.44014H12.4632ZM1.74816 2.15448C1.74816 1.96502 1.82342 1.78333 1.95738 1.64937C2.09134 1.5154 2.27304 1.44014 2.46249 1.44014H6.74849V6.44048H1.74816V2.15448ZM2.46249 12.8695C2.27304 12.8695 2.09134 12.7942 1.95738 12.6603C1.82342 12.5263 1.74816 12.3446 1.74816 12.1551V7.86915H6.74849V12.8695H2.46249ZM13.1775 12.1551C13.1775 12.3446 13.1022 12.5263 12.9683 12.6603C12.8343 12.7942 12.6526 12.8695 12.4632 12.8695H8.17716V7.86915H13.1775V12.1551Z"
          fill="#999999"/>
</svg>
