<svg width="16" height="15" viewBox="0 0 16 15" fill="none" xmlns="http://www.w3.org/2000/svg">
    <path d="M13.0638 0.341309L2.97405 0.341309C2.40063 0.341309 1.85069 0.569101 1.44521 0.974573C1.03974 1.38005 0.811951 1.92998 0.811951 2.50341L0.811951 12.5932C0.811951 13.1666 1.03974 13.7166 1.44521 14.122C1.85069 14.5275 2.40063 14.7553 2.97405 14.7553H13.0638C13.6373 14.7553 14.1872 14.5275 14.5927 14.122C14.9982 13.7166 15.2259 13.1666 15.2259 12.5932V2.50341C15.2259 1.92998 14.9982 1.38005 14.5927 0.974573C14.1872 0.569101 13.6373 0.341309 13.0638 0.341309ZM13.0638 1.78271C13.255 1.78271 13.4383 1.85864 13.5735 1.9938C13.7086 2.12895 13.7845 2.31227 13.7845 2.50341V6.82761L8.73965 6.82761V1.78271L13.0638 1.78271ZM2.25335 2.50341C2.25335 2.31227 2.32928 2.12895 2.46444 1.9938C2.5996 1.85864 2.78291 1.78271 2.97405 1.78271L7.29825 1.78271V6.82761H2.25335L2.25335 2.50341ZM2.97405 13.3139C2.78291 13.3139 2.5996 13.238 2.46444 13.1028C2.32928 12.9677 2.25335 12.7843 2.25335 12.5932L2.25335 8.269H7.29825L7.29825 13.3139H2.97405ZM13.7845 12.5932C13.7845 12.7843 13.7086 12.9677 13.5735 13.1028C13.4383 13.238 13.255 13.3139 13.0638 13.3139H8.73965V8.269H13.7845V12.5932Z"
          fill="#666666"/>
</svg>
